<svg width="32" height="32" viewBox="0 0 32 32" fill="none" xmlns="http://www.w3.org/2000/svg">
<path d="M24.9435 4.82479C24.3867 4.29522 23.6475 4 22.8792 4C22.1108 4 21.3718 4.29524 20.8148 4.82479L20.2998 5.33979C19.8057 4.91713 19.1723 4.6928 18.522 4.71021C17.872 4.72765 17.2516 4.98553 16.7806 5.43425L11.974 10.2151L13.1843 11.4254L17.9823 6.62734C18.1252 6.49073 18.3107 6.40758 18.5079 6.39187C18.7048 6.37616 18.9012 6.42904 19.0639 6.54151L4.24898 21.3735C4.08613 21.5377 3.99647 21.7606 4.00011 21.9916V27.1417C4.00011 27.3693 4.09054 27.5877 4.25148 27.7486C4.41241 27.9096 4.63083 28 4.85844 28H27.1752V26.2833H12.0685L27.1752 11.1678C27.7187 10.6183 28.0236 9.87646 28.0236 9.10357C28.0236 8.33048 27.7187 7.58882 27.1752 7.03915L24.9435 4.82479ZM9.64792 26.2832H5.71684V22.3348L5.87126 22.1804L9.80253 26.1115L9.64792 26.2832ZM25.9563 9.9748L25.4413 10.4898L21.5188 6.54146L22.0338 6.02646C22.2631 5.8021 22.5712 5.67642 22.8921 5.67642C23.2131 5.67642 23.5211 5.8021 23.7505 6.02646L25.9649 8.25813C26.1979 8.48287 26.3293 8.79265 26.3293 9.11647C26.3293 9.44028 26.1979 9.75006 25.9649 9.9748H25.9563Z" fill="white"/>
</svg>
