<svg width="24" height="24" viewBox="0 0 24 24" fill="none" xmlns="http://www.w3.org/2000/svg">
<path d="M6.31981 16.4075H11.2363V11.783C11.2363 11.375 11.6102 11.0274 12.0557 11.0274C12.4932 11.0274 12.8671 11.375 12.8671 11.783V16.4075H18.1734C20.4646 16.4075 22 15.0473 22 13.2565C22 11.7754 21.0374 10.4153 19.4861 9.80324C19.502 6.43313 16.9483 4 13.6945 4C11.5386 4 10.0032 5.09566 9.04853 6.41802C7.24264 5.95708 4.95943 7.28699 4.91965 9.41031C3.12172 9.68234 2 11.186 2 12.9316C2 14.8584 3.71042 16.4075 6.31981 16.4075ZM12.0557 20.8959C12.2148 20.8959 12.35 20.843 12.5091 20.6919L15.1981 18.2285C15.3174 18.1152 15.389 17.9943 15.389 17.828C15.389 17.5258 15.1344 17.2991 14.8083 17.2991C14.6571 17.2991 14.4901 17.3595 14.3787 17.4804L13.1695 18.7046L12.6364 19.2335L12.6842 18.1076V16.3999C12.6842 16.0825 12.3978 15.8105 12.0557 15.8105C11.7136 15.8105 11.4193 16.0825 11.4193 16.3999V18.1076L11.467 19.2411L10.934 18.7046L9.72474 17.4804C9.61337 17.3595 9.43835 17.2991 9.28719 17.2991C8.95306 17.2991 8.7144 17.5258 8.7144 17.828C8.7144 17.9943 8.77804 18.1152 8.90533 18.2285L11.5943 20.6919C11.7534 20.843 11.8886 20.8959 12.0557 20.8959Z"/>
</svg>
