<svg width="24" height="24" viewBox="0 0 24 24" fill="none" xmlns="http://www.w3.org/2000/svg">
<path d="M7.7773 15.6227H11.4322V12.1849C11.4322 11.8815 11.7102 11.6231 12.0414 11.6231C12.3667 11.6231 12.6446 11.8815 12.6446 12.1849V15.6227H16.5894C18.2927 15.6227 19.4341 14.6116 19.4341 13.2803C19.4341 12.1792 18.7185 11.1681 17.5652 10.7131C17.577 8.20773 15.6786 6.39893 13.2597 6.39893C11.657 6.39893 10.5155 7.21345 9.80585 8.1965C8.46334 7.85384 6.76598 8.8425 6.73641 10.421C5.39981 10.6232 4.56592 11.7411 4.56592 13.0387C4.56592 14.4712 5.83746 15.6227 7.7773 15.6227ZM12.0414 18.9595C12.1597 18.9595 12.2602 18.9202 12.3785 18.8078L14.3775 16.9765C14.4662 16.8923 14.5194 16.8024 14.5194 16.6788C14.5194 16.4541 14.3302 16.2856 14.0877 16.2856C13.9753 16.2856 13.8511 16.3305 13.7683 16.4204L12.8694 17.3304L12.4731 17.7236L12.5086 16.8866V15.6171C12.5086 15.3812 12.2957 15.179 12.0414 15.179C11.7871 15.179 11.5683 15.3812 11.5683 15.6171V16.8866L11.6038 17.7293L11.2075 17.3304L10.3086 16.4204C10.2258 16.3305 10.0956 16.2856 9.98328 16.2856C9.73488 16.2856 9.55746 16.4541 9.55746 16.6788C9.55746 16.8024 9.60477 16.8923 9.6994 16.9765L11.6984 18.8078C11.8167 18.9202 11.9172 18.9595 12.0414 18.9595Z" fill="white"/>
</svg>
