<svg width="48" height="48" viewBox="0 0 48 48" fill="none" xmlns="http://www.w3.org/2000/svg">
<circle cx="24" cy="24" r="24" fill="black" fill-opacity="0.05"/>
<path d="M24.0006 13.7144C21.2073 13.7144 20.8567 13.7266 19.7596 13.7765C18.6646 13.8266 17.9172 14 17.2632 14.2544C16.5868 14.5171 16.0129 14.8685 15.4412 15.4404C14.8691 16.0121 14.5177 16.586 14.2541 17.2623C13.9991 17.9165 13.8256 18.6641 13.7763 19.7587C13.7272 20.8559 13.7144 21.2066 13.7144 24.0001C13.7144 26.7935 13.7268 27.143 13.7765 28.2401C13.8269 29.3351 14.0002 30.0826 14.2543 30.7366C14.5173 31.4131 14.8687 31.9869 15.4406 32.5586C16.0121 33.1308 16.5859 33.4831 17.262 33.7458C17.9164 34.0001 18.664 34.1735 19.7587 34.2236C20.8559 34.2736 21.2062 34.2858 23.9993 34.2858C26.7929 34.2858 27.1424 34.2736 28.2395 34.2236C29.3345 34.1735 30.0827 34.0001 30.7371 33.7458C31.4134 33.4831 31.9864 33.1308 32.5579 32.5586C33.13 31.9869 33.4814 31.4131 33.745 30.7368C33.9978 30.0826 34.1714 29.3349 34.2228 28.2404C34.2721 27.1432 34.2849 26.7935 34.2849 24.0001C34.2849 21.2066 34.2721 20.8561 34.2228 19.7589C34.1714 18.6639 33.9978 17.9165 33.745 17.2625C33.4814 16.586 33.13 16.0121 32.5579 15.4404C31.9857 14.8683 31.4136 14.5169 30.7365 14.2544C30.0808 14 29.333 13.8266 28.238 13.7765C27.1409 13.7266 26.7916 13.7144 23.9974 13.7144H24.0006ZM23.0779 15.5679C23.3518 15.5675 23.6573 15.5679 24.0006 15.5679C26.7468 15.5679 27.0723 15.5778 28.1568 15.6271C29.1596 15.6729 29.7039 15.8405 30.0664 15.9813C30.5464 16.1677 30.8886 16.3906 31.2484 16.7506C31.6084 17.1106 31.8312 17.4534 32.0181 17.9334C32.1589 18.2956 32.3266 18.8399 32.3723 19.8427C32.4216 20.927 32.4323 21.2527 32.4323 23.9977C32.4323 26.7427 32.4216 27.0684 32.3723 28.1527C32.3264 29.1556 32.1589 29.6999 32.0181 30.062C31.8317 30.542 31.6084 30.8838 31.2484 31.2436C30.8884 31.6036 30.5466 31.8264 30.0664 32.0129C29.7043 32.1543 29.1596 32.3214 28.1568 32.3673C27.0725 32.4166 26.7468 32.4273 24.0006 32.4273C21.2542 32.4273 20.9287 32.4166 19.8445 32.3673C18.8416 32.321 18.2974 32.1534 17.9346 32.0126C17.4546 31.8262 17.1118 31.6034 16.7518 31.2434C16.3918 30.8834 16.1689 30.5414 15.9821 30.0611C15.8413 29.699 15.6735 29.1547 15.6279 28.1519C15.5786 27.0676 15.5687 26.7419 15.5687 23.9951C15.5687 21.2484 15.5786 20.9244 15.6279 19.8401C15.6737 18.8373 15.8413 18.293 15.9821 17.9304C16.1685 17.4504 16.3918 17.1076 16.7518 16.7476C17.1118 16.3876 17.4546 16.1647 17.9346 15.9779C18.2971 15.8364 18.8416 15.6693 19.8445 15.6232C20.7933 15.5804 21.161 15.5675 23.0779 15.5654V15.5679ZM29.4909 17.2758C28.8095 17.2758 28.2566 17.828 28.2566 18.5096C28.2566 19.1911 28.8095 19.7439 29.4909 19.7439C30.1723 19.7439 30.7251 19.1911 30.7251 18.5096C30.7251 17.8282 30.1723 17.2754 29.4909 17.2754V17.2758ZM24.0006 18.7179C21.0836 18.7179 18.7186 21.083 18.7186 24.0001C18.7186 26.9171 21.0836 29.2811 24.0006 29.2811C26.9176 29.2811 29.2817 26.9171 29.2817 24.0001C29.2817 21.083 26.9174 18.7179 24.0004 18.7179H24.0006ZM24.0006 20.5715C25.894 20.5715 27.4291 22.1064 27.4291 24.0001C27.4291 25.8935 25.894 27.4286 24.0006 27.4286C22.107 27.4286 20.5721 25.8935 20.5721 24.0001C20.5721 22.1064 22.107 20.5715 24.0006 20.5715Z" fill="white"/>
</svg>
