<svg width="48" height="48" viewBox="0 0 48 48" fill="none" xmlns="http://www.w3.org/2000/svg">
<circle cx="24" cy="24" r="24" fill="black" fill-opacity="0.05"/>
<path d="M23.9998 12C21.6264 12 19.3064 12.7039 17.3329 14.0224C15.3597 15.341 13.8216 17.2151 12.9134 19.4078C12.0052 21.6004 11.7676 24.0133 12.2306 26.3412C12.6935 28.6689 13.8364 30.807 15.5146 32.4854C17.1929 34.1636 19.3309 35.3064 21.6587 35.7694C23.9865 36.2325 26.399 35.9947 28.5921 35.0866C30.7847 34.1783 32.6588 32.6403 33.9775 30.667C35.2961 28.6935 35.9999 26.3736 35.9999 24.0001C35.9961 20.8188 34.7307 17.7685 32.4811 15.5192C30.2315 13.2697 27.1812 12.0042 24.0002 12.0004L23.9998 12ZM14.2463 25.0907H17.4841C17.5475 27.7429 18.2217 30.3447 19.4543 32.694C18.0311 31.9485 16.8123 30.8657 15.9044 29.5402C14.9966 28.2147 14.4273 26.6871 14.2463 25.0905V25.0907ZM17.4841 22.909H14.2463C14.4273 21.3125 14.9966 19.7848 15.9044 18.4593C16.8123 17.1338 18.0311 16.051 19.4543 15.3055C18.2218 17.6548 17.5475 20.2566 17.4841 22.9089V22.909ZM22.9093 33.4535C21.335 32.4325 19.8821 29.3147 19.6649 25.0905H22.9093V33.4535ZM22.9093 22.909H19.6649C19.882 18.685 21.335 15.567 22.9093 14.5459V22.909ZM25.0909 33.4535V25.0905H28.3353C28.1182 29.3145 26.6652 32.4325 25.0909 33.4535ZM25.0909 22.909V14.5459C26.6652 15.567 28.1181 18.6848 28.3353 22.909H25.0909ZM28.5458 32.6943C29.7784 30.345 30.4526 27.7432 30.516 25.0909H33.7538C33.5728 26.6874 33.0036 28.2151 32.0957 29.5406C31.1879 30.8662 29.9691 31.949 28.5458 32.6944V32.6943ZM30.516 22.909C30.4527 20.2567 29.7784 17.655 28.5458 15.3057C29.969 16.0511 31.1879 17.1339 32.0957 18.4594C33.0036 19.785 33.5728 21.3126 33.7538 22.9091L30.516 22.909Z" fill="white"/>
</svg>
