<svg width="48" height="48" viewBox="0 0 48 48" fill="none" xmlns="http://www.w3.org/2000/svg">
<circle cx="24" cy="24" r="24" fill="black" fill-opacity="0.05"/>
<path d="M16.2134 18.7124C17.5935 18.7124 18.7124 17.5935 18.7124 16.2134C18.7124 14.8332 17.5935 13.7144 16.2134 13.7144C14.8332 13.7144 13.7144 14.8332 13.7144 16.2134C13.7144 17.5935 14.8332 18.7124 16.2134 18.7124Z" fill="white"/>
<path d="M21.001 20.5592H25.1427V22.4565C25.1427 22.4565 26.2666 20.2087 29.3245 20.2087C32.0524 20.2087 34.3121 21.5525 34.3121 25.6485V34.2858H30.0201V26.6951C30.0201 24.2789 28.7301 24.0131 27.7472 24.0131C25.7072 24.0131 25.3579 25.7727 25.3579 27.0103V34.2858H21.001V20.5592Z" fill="white"/>
<path d="M14.0349 20.5592H18.3918V34.2858H14.0349V20.5592Z" fill="white"/>
</svg>
