<svg width="117" height="40" viewBox="0 0 117 40" fill="none" xmlns="http://www.w3.org/2000/svg">
<path d="M8.59922 28.5603C8.59922 28.7289 8.5668 28.93 8.50195 29.1634C8.45007 29.3969 8.31388 29.6174 8.09339 29.8249C7.88586 30.0324 7.57458 30.2075 7.15953 30.3502C6.75746 30.5058 6.21271 30.5837 5.52529 30.5837C4.83787 30.5837 4.29961 30.4994 3.91051 30.3307C3.5214 30.1751 3.22957 29.987 3.03502 29.7665C2.85344 29.546 2.73671 29.3191 2.68482 29.0856C2.64591 28.8521 2.62646 28.6641 2.62646 28.5214V3.42412C2.62646 3.04799 2.53567 2.72374 2.35409 2.45136C2.18547 2.16602 1.89364 2.02335 1.4786 2.02335C1.25811 2.02335 1.06355 2.06226 0.894942 2.14008C0.7393 2.20493 0.570687 2.30869 0.389105 2.45136L0 1.98444C0.298314 1.738 0.629053 1.49805 0.992218 1.26459C1.35538 1.01816 1.75097 0.80415 2.17899 0.622568C2.61997 0.440986 3.0869 0.291829 3.57977 0.175097C4.07263 0.0583658 4.59144 0 5.13619 0C5.97925 0 6.63424 0.116732 7.10117 0.350195C7.56809 0.570687 7.9118 0.849546 8.1323 1.18677C8.35279 1.51102 8.48249 1.86122 8.5214 2.23735C8.57328 2.60052 8.59922 2.92477 8.59922 3.21012V28.5603Z" fill="white"/>
<path d="M19.7276 28.5214C19.7276 28.69 19.6952 28.8975 19.6304 29.144C19.5785 29.3774 19.4423 29.6044 19.2218 29.8249C19.0143 30.0324 18.7095 30.2075 18.3074 30.3502C17.9053 30.5058 17.3606 30.5837 16.6732 30.5837C15.9857 30.5837 15.4475 30.4994 15.0584 30.3307C14.6693 30.1751 14.3774 29.987 14.1829 29.7665C13.9883 29.546 13.8651 29.3191 13.8132 29.0856C13.7743 28.8521 13.7549 28.6641 13.7549 28.5214V13.5019C13.7549 13.1258 13.6641 12.8016 13.4825 12.5292C13.3139 12.2438 13.022 12.1012 12.607 12.1012C12.3865 12.1012 12.1984 12.1401 12.0428 12.2179C11.8872 12.2957 11.7185 12.406 11.537 12.5486L11.1284 12.0623C11.4267 11.8158 11.7575 11.5759 12.1206 11.3424C12.4968 11.096 12.8988 10.882 13.3268 10.7004C13.7549 10.5188 14.2153 10.3696 14.7082 10.2529C15.201 10.1362 15.7198 10.0778 16.2646 10.0778C17.1077 10.0778 17.7626 10.1946 18.2296 10.428C18.6965 10.6485 19.0402 10.9274 19.2607 11.2646C19.4812 11.5888 19.6109 11.939 19.6498 12.3152C19.7017 12.6913 19.7276 13.022 19.7276 13.3074V28.5214ZM13.1518 5.64202C13.1518 5.27886 13.2296 4.93515 13.3852 4.6109C13.5538 4.27367 13.7808 3.98184 14.0661 3.73541C14.3645 3.48898 14.7017 3.29442 15.0778 3.15175C15.4669 3.00908 15.8885 2.93774 16.3424 2.93774C16.7834 2.93774 17.192 3.00908 17.5681 3.15175C17.9572 3.29442 18.2944 3.48898 18.5798 3.73541C18.8651 3.98184 19.0856 4.27367 19.2412 4.6109C19.4099 4.93515 19.4942 5.27886 19.4942 5.64202C19.4942 6.01816 19.4099 6.36835 19.2412 6.69261C19.0856 7.01686 18.8651 7.30221 18.5798 7.54864C18.2944 7.7821 17.9572 7.97017 17.5681 8.11284C17.192 8.25551 16.7834 8.32685 16.3424 8.32685C15.8885 8.32685 15.4669 8.25551 15.0778 8.11284C14.7017 7.97017 14.3645 7.7821 14.0661 7.54864C13.7808 7.30221 13.5538 7.01686 13.3852 6.69261C13.2296 6.36835 13.1518 6.01816 13.1518 5.64202Z" fill="white"/>
<path d="M23.4047 20.3113C23.4047 18.6122 23.6511 17.1271 24.144 15.856C24.6368 14.572 25.2918 13.5019 26.1089 12.6459C26.939 11.7899 27.8988 11.1479 28.9883 10.7198C30.0778 10.2918 31.2192 10.0778 32.4125 10.0778C33.6057 10.0778 34.7471 10.2789 35.8366 10.6809C36.9261 11.07 37.8794 11.6732 38.6965 12.4903C39.5266 13.3074 40.1881 14.345 40.6809 15.6031C41.1738 16.8482 41.4202 18.3268 41.4202 20.0389C41.4202 21.738 41.1738 23.2425 40.6809 24.5525C40.1881 25.8625 39.5266 26.965 38.6965 27.8599C37.8794 28.7549 36.9261 29.4358 35.8366 29.9027C34.7471 30.3567 33.6057 30.5837 32.4125 30.5837H32.2957C33.022 30.7912 33.8132 31.0765 34.6693 31.4397C35.5383 31.8029 36.4332 32.192 37.3541 32.607C38.2879 33.022 39.2218 33.4436 40.1556 33.8716C41.1025 34.3126 42.0169 34.7082 42.8988 35.0584C43.7808 35.4086 44.6109 35.6939 45.3891 35.9144C46.1803 36.1349 46.8872 36.2451 47.5097 36.2451C47.9248 36.2451 48.275 36.2127 48.5603 36.1479C48.8586 36.083 49.1051 35.9922 49.2996 35.8755C49.4942 35.7588 49.6433 35.6226 49.7471 35.4669C49.8638 35.3113 49.9611 35.1362 50.0389 34.9416L50.6226 35.0584C50.5577 35.7977 50.4021 36.4656 50.1556 37.0623C49.9222 37.6719 49.5979 38.1907 49.1829 38.6187C48.7808 39.0597 48.2944 39.3969 47.7237 39.6304C47.153 39.8768 46.511 40 45.7977 40C44.9546 40 44.0402 39.8314 43.0545 39.4942C42.0687 39.1569 41.0441 38.7354 39.9805 38.2296C38.93 37.7367 37.8599 37.1984 36.7704 36.6148C35.6939 36.0311 34.6368 35.4864 33.5992 34.9805C32.5746 34.4877 31.5888 34.0726 30.642 33.7354C29.7082 33.3982 28.8651 33.2296 28.1128 33.2296C27.3476 33.2296 26.8029 33.5603 26.4786 34.2218L25.8755 34.0272C25.9144 33.8067 26.0117 33.4955 26.1673 33.0934C26.323 32.6913 26.5629 32.2892 26.8872 31.8872C27.2114 31.4851 27.6265 31.1284 28.1323 30.8171C28.6511 30.5058 29.2802 30.3243 30.0195 30.2724C29.0986 30.0389 28.2361 29.6563 27.4319 29.1245C26.6278 28.5798 25.9274 27.8923 25.3307 27.0623C24.7341 26.2322 24.2607 25.2529 23.9105 24.1245C23.5733 22.9961 23.4047 21.725 23.4047 20.3113ZM35.3697 20.1167C35.3697 19.0791 35.3307 18.0804 35.2529 17.1206C35.1881 16.1479 35.0519 15.2853 34.8444 14.5331C34.6368 13.7808 34.3385 13.1842 33.9494 12.7432C33.5603 12.2892 33.048 12.0623 32.4125 12.0623C31.7769 12.0623 31.2646 12.3022 30.8755 12.7821C30.4864 13.249 30.1881 13.8716 29.9805 14.6498C29.773 15.415 29.6368 16.2905 29.572 17.2763C29.5071 18.262 29.4747 19.2737 29.4747 20.3113C29.4747 21.3489 29.5071 22.3671 29.572 23.3658C29.6368 24.3515 29.773 25.2335 29.9805 26.0117C30.1881 26.7899 30.4864 27.4189 30.8755 27.8988C31.2646 28.3658 31.7769 28.5992 32.4125 28.5992C33.048 28.5992 33.5603 28.3528 33.9494 27.8599C34.3385 27.3671 34.6368 26.7185 34.8444 25.9144C35.0519 25.1102 35.1881 24.2023 35.2529 23.1907C35.3307 22.179 35.3697 21.1543 35.3697 20.1167Z" fill="white"/>
<path d="M62.0817 26.8872C62.0817 27.0039 62.0882 27.1336 62.1012 27.2763C62.1141 27.406 62.1466 27.5357 62.1984 27.6654C62.2503 27.7821 62.3281 27.8794 62.4319 27.9572C62.5357 28.035 62.6848 28.0739 62.8794 28.0739C63.1258 28.0739 63.3463 27.9896 63.5409 27.821C63.7354 27.6394 63.917 27.4578 64.0856 27.2763L64.5525 27.6848C64.358 27.9572 64.1115 28.262 63.8132 28.5992C63.5279 28.9235 63.1777 29.2348 62.7626 29.5331C62.3476 29.8314 61.8742 30.0778 61.3424 30.2724C60.8106 30.4799 60.2075 30.5837 59.5331 30.5837C58.9624 30.5837 58.463 30.5058 58.035 30.3502C57.62 30.2075 57.2633 30.013 56.965 29.7665C56.6796 29.5071 56.4656 29.2088 56.323 28.8716C56.1803 28.5214 56.109 28.1518 56.109 27.7626V26.8872C55.4604 27.5875 54.7795 28.2036 54.0662 28.7354C53.7549 28.9689 53.4241 29.1959 53.0739 29.4163C52.7237 29.6368 52.3606 29.8379 51.9844 30.0195C51.6083 30.1881 51.2192 30.3243 50.8171 30.428C50.415 30.5318 50.013 30.5837 49.6109 30.5837C48.8327 30.5837 48.1647 30.4475 47.607 30.1751C47.0623 29.8898 46.6213 29.5201 46.284 29.0661C45.9468 28.6122 45.7004 28.0999 45.5448 27.5292C45.3891 26.9585 45.3113 26.3878 45.3113 25.8171V13.7743C45.3113 13.6576 45.3048 13.5344 45.2918 13.4047C45.2789 13.262 45.2464 13.1323 45.1946 13.0156C45.1427 12.8859 45.0649 12.7821 44.9611 12.7043C44.8573 12.6265 44.7082 12.5875 44.5136 12.5875C44.2802 12.5875 44.0597 12.6783 43.8521 12.8599C43.6576 13.0285 43.4825 13.2036 43.3269 13.3852L42.8405 12.9767C43.035 12.7043 43.275 12.406 43.5603 12.0817C43.8586 11.7445 44.2153 11.4267 44.6304 11.1284C45.0454 10.8301 45.5188 10.5837 46.0506 10.3891C46.5953 10.1816 47.1984 10.0778 47.8599 10.0778C48.4306 10.0778 48.93 10.1556 49.358 10.3113C49.786 10.454 50.1427 10.655 50.428 10.9144C50.7134 11.1608 50.9274 11.4591 51.07 11.8093C51.2127 12.1466 51.284 12.5097 51.284 12.8988V25.8949C51.284 26.0765 51.31 26.2646 51.3619 26.4591C51.4267 26.6407 51.511 26.8093 51.6148 26.965C51.7315 27.1206 51.8742 27.2503 52.0428 27.3541C52.2114 27.4449 52.4125 27.4903 52.6459 27.4903C53.0221 27.4903 53.3982 27.393 53.7743 27.1984C54.1505 27.0039 54.4942 26.7769 54.8055 26.5175C55.1167 26.2451 55.3826 25.9792 55.6031 25.7198C55.8366 25.4604 56.0052 25.2659 56.109 25.1362V13.7743C56.109 13.6576 56.1025 13.5344 56.0895 13.4047C56.0765 13.262 56.0441 13.1323 55.9922 13.0156C55.9403 12.8859 55.8625 12.7821 55.7588 12.7043C55.655 12.6265 55.5058 12.5875 55.3113 12.5875C55.0778 12.5875 54.8573 12.6783 54.6498 12.8599C54.4553 13.0285 54.2802 13.2036 54.1245 13.3852L53.6381 12.9767C53.8327 12.7043 54.0726 12.406 54.358 12.0817C54.6563 11.7445 55.013 11.4267 55.428 11.1284C55.8431 10.8301 56.3165 10.5837 56.8483 10.3891C57.393 10.1816 57.9961 10.0778 58.6576 10.0778C59.2283 10.0778 59.7276 10.1556 60.1556 10.3113C60.5837 10.454 60.9403 10.655 61.2257 10.9144C61.511 11.1608 61.725 11.4591 61.8677 11.8093C62.0104 12.1466 62.0817 12.5097 62.0817 12.8988V26.8872Z" fill="white"/>
<path d="M65.9728 20.3113C65.9728 18.6122 66.2192 17.1271 66.7121 15.856C67.2049 14.572 67.8599 13.5019 68.677 12.6459C69.5071 11.7899 70.4669 11.1479 71.5564 10.7198C72.6459 10.2918 73.7873 10.0778 74.9805 10.0778C76.1738 10.0778 77.3152 10.2789 78.4047 10.6809C79.4942 11.07 80.4475 11.6732 81.2646 12.4903C82.0947 13.3074 82.7562 14.345 83.249 15.6031C83.7419 16.8482 83.9883 18.3268 83.9883 20.0389C83.9883 21.738 83.7419 23.2425 83.249 24.5525C82.7562 25.8625 82.0947 26.965 81.2646 27.8599C80.4475 28.7549 79.4942 29.4358 78.4047 29.9027C77.3152 30.3567 76.1738 30.5837 74.9805 30.5837C73.7873 30.5837 72.6459 30.3697 71.5564 29.9416C70.4669 29.5007 69.5071 28.8521 68.677 27.9961C67.8599 27.1401 67.2049 26.07 66.7121 24.786C66.2192 23.5019 65.9728 22.0104 65.9728 20.3113ZM77.9377 20.1167C77.9377 19.0791 77.8988 18.0804 77.821 17.1206C77.7562 16.1479 77.62 15.2853 77.4125 14.5331C77.2049 13.7808 76.9066 13.1842 76.5175 12.7432C76.1284 12.2892 75.6161 12.0623 74.9805 12.0623C74.345 12.0623 73.8327 12.3022 73.4436 12.7821C73.0545 13.249 72.7562 13.8716 72.5486 14.6498C72.3411 15.415 72.2049 16.2905 72.1401 17.2763C72.0752 18.262 72.0428 19.2737 72.0428 20.3113C72.0428 21.3489 72.0752 22.3671 72.1401 23.3658C72.2049 24.3515 72.3411 25.2335 72.5486 26.0117C72.7562 26.7899 73.0545 27.4189 73.4436 27.8988C73.8327 28.3658 74.345 28.5992 74.9805 28.5992C75.6161 28.5992 76.1284 28.3528 76.5175 27.8599C76.9066 27.3671 77.2049 26.7185 77.4125 25.9144C77.62 25.1102 77.7562 24.2023 77.821 23.1907C77.8988 22.179 77.9377 21.1543 77.9377 20.1167Z" fill="white"/>
<path d="M93.9494 11.751V26.1284C93.9494 26.8158 94.0791 27.2957 94.3385 27.5681C94.5979 27.8275 94.9546 27.9572 95.4086 27.9572C95.7588 27.9572 96.07 27.8599 96.3424 27.6654C96.6148 27.4708 96.8483 27.2503 97.0428 27.0039C97.2763 26.7315 97.4773 26.4137 97.6459 26.0506L98.249 26.323C98.0545 26.738 97.821 27.192 97.5486 27.6848C97.2892 28.1777 96.939 28.6381 96.4981 29.0661C96.0571 29.4812 95.4994 29.8314 94.8249 30.1167C94.1634 30.4021 93.3269 30.5447 92.3152 30.5447C91.7445 30.5447 91.1933 30.4604 90.6615 30.2918C90.1427 30.1232 89.6758 29.8573 89.2607 29.4942C88.8586 29.131 88.5344 28.677 88.2879 28.1323C88.0415 27.5875 87.9183 26.9326 87.9183 26.1673V11.751H85.7393V10.3502C86.1025 10.3502 86.6083 10.2594 87.2568 10.0778C87.9053 9.88327 88.5668 9.5655 89.2412 9.12451C89.9287 8.68353 90.5642 8.09339 91.1479 7.35409C91.7315 6.61479 92.1466 5.70039 92.393 4.6109H93.9494V10.3502H97.1206C98.1582 10.3502 98.677 10.1751 98.677 9.8249C98.677 9.6952 98.6122 9.6109 98.4825 9.57199C98.3528 9.5201 98.2036 9.46174 98.035 9.39689C97.8794 9.31907 97.7367 9.21531 97.607 9.0856C97.4773 8.9559 97.4125 8.74189 97.4125 8.44358C97.4125 8.08042 97.5227 7.79507 97.7432 7.58755C97.9767 7.38003 98.275 7.27626 98.6381 7.27626C98.8716 7.27626 99.0726 7.32815 99.2412 7.43191C99.4228 7.5227 99.572 7.6524 99.6887 7.82101C99.8055 7.97665 99.8898 8.15824 99.9416 8.36576C100.006 8.57328 100.039 8.7808 100.039 8.98833C100.039 9.83139 99.7925 10.5058 99.2996 11.0117C98.8197 11.5045 98.0415 11.751 96.965 11.751H93.9494Z" fill="white"/>
<path d="M105.7 21.3424C105.7 21.7575 105.759 22.2114 105.875 22.7043C106.005 23.1842 106.187 23.6706 106.42 24.1634C106.654 24.6563 106.939 25.1297 107.276 25.5837C107.626 26.0246 108.022 26.4202 108.463 26.7704C108.917 27.1206 109.416 27.3995 109.961 27.607C110.506 27.8145 111.102 27.9183 111.751 27.9183C112.205 27.9183 112.626 27.8664 113.016 27.7626C113.405 27.6589 113.768 27.5162 114.105 27.3346C114.442 27.153 114.767 26.9455 115.078 26.7121C115.389 26.4656 115.7 26.2062 116.012 25.9339L116.498 26.4008C116.2 26.8029 115.817 27.2438 115.35 27.7237C114.883 28.2036 114.319 28.6576 113.658 29.0856C112.996 29.5007 112.224 29.8508 111.342 30.1362C110.46 30.4086 109.455 30.5447 108.327 30.5447C107.198 30.5447 106.096 30.3437 105.019 29.9416C103.956 29.5266 103.009 28.9105 102.179 28.0934C101.349 27.2763 100.681 26.2581 100.175 25.0389C99.6822 23.8197 99.4358 22.393 99.4358 20.7588C99.4358 19.5785 99.585 18.4955 99.8833 17.5097C100.182 16.524 100.584 15.6355 101.09 14.8444C101.608 14.0532 102.205 13.3593 102.879 12.7626C103.567 12.166 104.287 11.6732 105.039 11.284C105.791 10.882 106.556 10.5837 107.335 10.3891C108.126 10.1816 108.885 10.0778 109.611 10.0778C110.571 10.0778 111.407 10.1816 112.121 10.3891C112.834 10.5966 113.424 10.8755 113.891 11.2257C114.371 11.5759 114.728 11.9844 114.961 12.4514C115.195 12.9053 115.311 13.3852 115.311 13.8911C115.311 14.5006 115.136 15.0519 114.786 15.5447C114.436 16.0246 113.969 16.4462 113.385 16.8093L105.7 21.3424ZM109.611 17.393C109.78 17.2892 109.916 17.192 110.019 17.1012C110.136 16.9974 110.227 16.8807 110.292 16.751C110.357 16.6083 110.402 16.4397 110.428 16.2451C110.467 16.0376 110.486 15.7847 110.486 15.4864C110.486 15.1621 110.447 14.8054 110.37 14.4163C110.305 14.0143 110.188 13.6381 110.019 13.2879C109.851 12.9377 109.637 12.6459 109.377 12.4125C109.118 12.179 108.807 12.0623 108.444 12.0623C107.977 12.0623 107.575 12.2049 107.237 12.4903C106.913 12.7626 106.641 13.1193 106.42 13.5603C106.213 14.0013 106.044 14.5071 105.914 15.0778C105.798 15.6355 105.707 16.1997 105.642 16.7704C105.577 17.3411 105.538 17.8923 105.525 18.4241C105.512 18.9429 105.506 19.3839 105.506 19.7471L109.611 17.393Z" fill="white"/>
</svg>
