<svg width="48" height="48" viewBox="0 0 48 48" fill="none" xmlns="http://www.w3.org/2000/svg">
<circle cx="24" cy="24" r="24" fill="black" fill-opacity="0.05"/>
<path d="M21.2248 33.0397C20.4941 33.0397 20.6183 32.7638 20.3662 32.068L18.2175 24.9964L34.7574 15.1841" fill="white" fill-opacity="0.3"/>
<path d="M21.2249 33.0396C21.7887 33.0396 22.0378 32.7817 22.3526 32.4757L25.3598 29.5516L21.6087 27.2896" fill="white" fill-opacity="0.5"/>
<path d="M21.6084 27.2902L30.6978 34.0056C31.7351 34.5779 32.4837 34.2816 32.742 33.0426L36.4419 15.6075C36.8207 14.0888 35.863 13.4 34.8707 13.8504L13.1452 22.2277C11.6622 22.8225 11.6708 23.6499 12.8749 24.0185L18.4501 25.7587L31.3574 17.6156C31.9668 17.2461 32.526 17.4447 32.067 17.8521" fill="url(#paint0_linear_14_351)"/>
<defs>
<linearGradient id="paint0_linear_14_351" x1="28.1802" y1="22.702" x2="31.7097" y2="30.7338" gradientUnits="userSpaceOnUse">
<stop stop-color="white"/>
<stop offset="1" stop-color="white"/>
</linearGradient>
</defs>
</svg>
