<svg width="48" height="48" viewBox="0 0 48 48" fill="none" xmlns="http://www.w3.org/2000/svg">
<circle cx="24" cy="24" r="24" fill="black" fill-opacity="0.05"/>
<path fill-rule="evenodd" clip-rule="evenodd" d="M32.9848 19.1197C32.9935 19.3459 32.9965 19.572 32.9965 19.7981C32.9965 26.6553 28.1728 34.5714 19.352 34.5714C16.6424 34.5714 14.1228 33.7078 12 32.2377C12.3753 32.2788 12.7564 32.3098 13.1433 32.3098C15.3899 32.3098 17.4592 31.4769 19.1005 30.0787C17.002 30.0479 15.2301 28.5366 14.619 26.4805C14.9123 26.5422 15.2145 26.5731 15.5234 26.5731C15.9591 26.5731 16.3821 26.5115 16.7876 26.3881C14.5916 25.9152 12.9376 23.818 12.9376 21.2993C12.9376 21.2685 12.9376 21.2581 12.9376 21.2376C13.5848 21.6179 14.3256 21.8543 15.1121 21.8851C13.8236 20.9496 12.9766 19.3561 12.9766 17.557C12.9766 16.6112 13.2125 15.7168 13.6277 14.9457C15.9923 18.0916 19.5274 20.158 23.5129 20.3739C23.431 19.9935 23.3891 19.5927 23.3891 19.1917C23.3891 16.3235 25.5363 14 28.1854 14C29.5646 14 30.8102 14.6272 31.6845 15.6347C32.7791 15.4085 33.8045 14.9768 34.7324 14.3805C34.3727 15.5936 33.6134 16.6112 32.6212 17.2486C33.592 17.1252 34.5179 16.8478 35.3766 16.4366C34.7324 17.475 33.9214 18.3898 32.9848 19.1197Z" fill="white"/>
</svg>
