<svg width="316" height="412" viewBox="0 0 316 412" fill="none" xmlns="http://www.w3.org/2000/svg">
<path fill-rule="evenodd" clip-rule="evenodd" d="M153.489 218.866L111.44 291.696C109.642 294.809 110.67 298.768 113.843 300.599L124.947 307.01C128.072 308.814 132.033 307.802 133.859 304.64L175.908 231.809L243.165 270.641C249.356 274.215 251.477 282.131 247.903 288.322L192.868 383.645C166.074 430.054 106.722 445.949 60.3045 419.15L49.0487 412.651C2.62427 385.848 -13.2872 326.518 13.5148 280.096L68.5496 184.772C72.1239 178.582 80.0402 176.46 86.231 180.035L153.489 218.866ZM218.672 2.41555L330.767 67.1341C336.958 70.7084 339.079 78.6246 335.505 84.8155L316.09 118.444C312.515 124.635 304.599 126.756 298.408 123.182L186.312 58.4634C180.122 54.8891 178 46.9729 181.575 40.782L200.99 7.15328C204.565 0.962402 212.481 -1.15875 218.672 2.41555ZM175.908 231.809L153.489 218.866L228.964 83.0886L243.302 91.3665L257.64 99.6444L175.908 231.809Z" fill="black" fill-opacity="0.05"/>
</svg>
