<svg width="48" height="48" viewBox="0 0 48 48" fill="none" xmlns="http://www.w3.org/2000/svg">
<circle cx="24" cy="24" r="24" fill="black" fill-opacity="0.05"/>
<path fill-rule="evenodd" clip-rule="evenodd" d="M24.5082 13.727C27.0446 13.8516 29.408 14.8976 31.2132 16.7039C33.1387 18.6307 34.1986 21.1918 34.1975 23.9154C34.1952 29.5359 29.6197 34.109 23.9988 34.109C21.8851 34.109 20.2054 33.4596 19.1209 32.8683L13.7144 34.2858L15.1613 29.0035C14.2688 27.4576 13.7991 25.704 13.7999 23.9073C13.8021 18.287 18.3773 13.7144 23.9987 13.7144L24.5082 13.727ZM19.3713 31.0229L19.6809 31.2065C20.9824 31.9784 22.4743 32.3869 23.9954 32.3875H23.9988C28.671 32.3875 32.4737 28.5866 32.4755 23.9148C32.4764 21.651 31.5955 19.5223 29.9951 17.9208C28.3946 16.3193 26.2663 15.4368 24.0022 15.436C19.3264 15.436 15.5237 19.2365 15.5218 23.9079C15.5212 25.5089 15.9693 27.068 16.8179 28.4169L17.0194 28.7375L16.1631 31.864L19.3713 31.0229ZM29.1368 26.3394C29.0732 26.2331 28.9033 26.1694 28.6485 26.0419C28.3936 25.9144 27.1408 25.2983 26.9072 25.2132C26.6736 25.1283 26.5037 25.0858 26.3338 25.3407C26.164 25.5957 25.6756 26.1694 25.5269 26.3394C25.3783 26.5094 25.2296 26.5307 24.9749 26.4032C24.72 26.2757 23.8989 26.0067 22.9256 25.139C22.168 24.4636 21.6565 23.6295 21.5079 23.3745C21.3593 23.1196 21.492 22.9817 21.6196 22.8547C21.7343 22.7406 21.8745 22.5572 22.0019 22.4085C22.1293 22.2598 22.1717 22.1535 22.2567 21.9836C22.3417 21.8135 22.2992 21.6649 22.2355 21.5374C22.1717 21.4098 21.6621 20.1561 21.4498 19.6461C21.2429 19.1495 21.0328 19.2167 20.8764 19.2089C20.7279 19.2015 20.5579 19.1999 20.388 19.1999C20.2181 19.1999 19.942 19.2636 19.7085 19.5186C19.4749 19.7736 18.8165 20.3899 18.8165 21.6435C18.8165 22.8972 19.7297 24.1083 19.8571 24.2783C19.9845 24.4484 21.654 27.0209 24.2104 28.1243C24.8183 28.3868 25.293 28.5434 25.6631 28.6608C26.2736 28.8547 26.8291 28.8274 27.2682 28.7618C27.7578 28.6886 28.7759 28.1456 28.9882 27.5507C29.2006 26.9556 29.2006 26.4457 29.1368 26.3394Z" fill="white"/>
</svg>
